---------------------------
Crunchyroll Downloader
---------------------------


ffmpeg version 4.2.1 Copyright (c) 2000-2019 the FFmpeg developers

  configuration: --enable-gpl --enable-version3 --enable-sdl2 --enable-fontconfig --enable-gnutls --enable-iconv --enable-libass --enable-libdav1d --enable-libbluray --enable-libfreetype --enable-libmp3lame --enable-libopencore-amrnb --enable-libopencore-amrwb --enable-libopenjpeg --enable-libopus --enable-libshine --enable-libsnappy --enable-libsoxr --enable-libtheora --enable-libtwolame --enable-libvpx --enable-libwavpack --enable-libwebp --enable-libx264 --enable-libx265 --enable-libxml2 --enable-libzimg --enable-lzma --enable-zlib --enable-gmp --enable-libvidstab --enable-libvorbis --enable-libvo-amrwbenc --enable-libmysofa --enable-libspeex --enable-libxvid --enable-libaom --enable-libmfx --enable-amf --enable-ffnvcodec --enable-cuvid --enable-d3d11va --enable-nvenc --enable-nvdec --enable-dxva2 --enable-avisynth --enable-libopenmpt

  libavcodec     58. 54.100 / 58. 54.100

  libavdevice    58.  8.100 / 58.  8.100

  libswscale      5.  5.100 /  5.  5.100

  libpostproc    55.  5.100 / 55.  5.100

[hls @ 06d549c0] Skip ('#EXT-X-VERSION:3')

[hls @ 06d549c0] Opening 'crypto+https://v.vrv.co/evs/e4db361f76030679c9dfccaa5f495a36/assets/efmaqxcadlmjn3o_2040279.mp4/seg-1-v1-a1.ts?Policy=eyJTdGF0ZW1lbnQiOlt7IlJlc291cmNlIjoiaHR0cHM6Ly92LnZydi5jby9ldnMvZTRkYjM2MWY3NjAzMDY3OWM5ZGZjY2FhNWY0OTVhMzYvYXNzZXRzL2VmbWFxeGNhZGxtam4zb18yMDQwMjc5Lm1wNC8qIiwiQ29uZGl0aW9uIjp7IkRhdGVMZXNzVGhhbiI6eyJBV1M6RXBvY2hUaW1lIjoxNTc2OTY2NjIyfX19XX0_&Signature=ALtVuyAw1r7fUHsMg3tgqZpXisYSSadNEbzuhr9vB2~utLLZeuRpru9O9RrW0dTvySqPq2-fTsHIiPe1BrKrA19yIT-yTj2F9NqnJfh4v7HTE277Us6BNTQFamBzZMiEpVsNWTSy1P20B7-OCV9XPBb6uG4mAwJPGU-bYTtmMX-twa-u76kNwCItSX9tL8GYDu-NXpYF1udyXkSrlxupWGIxP2QQ8~InoV98CvCpueptuE1GkG17Fnxt-Dqz7fgYEiDUBqoUYDBOG-jO9OElbcG21BZVsu7TAQEMwgqFUIn65T5rgWr8flDWGkgrVLCCkt9L-OpuEtxdrKhr-s77eg__&Key-Pair-Id=APKAJMWSQ5S7ZB3MF5VA' for reading

  Duration: 00:02:16.67, start: 0.101000, bitrate: 0 kb/s

    Metadata:

    Stream #0:0: Video: h264 (High) ([27][0][0][0] / 0x001B), yuv420p, 1920x1080 [SAR 1:1 DAR 16:9], 29.97 fps, 29.97 tbr, 90k tbn, 59.94 tbc

      variant_bitrate : 0

    Metadata:

    Stream #0:2: Data: timed_id3 (ID3  / 0x20334449)

      variant_bitrate : 0

  Metadata:

    Stream #0:0: Video: h264 (High) (avc1 / 0x31637661), yuv420p, 1920x1080 [SAR 1:1 DAR 16:9], q=2-31, 29.97 fps, 29.97 tbr, 90k tbn, 90k tbc

      variant_bitrate : 0

    Metadata:

Stream mapping:

  Stream #0:1 -> #0:1 (copy)

[hls @ 06d549c0] Opening 'crypto+https://v.vrv.co/evs/e4db361f76030679c9dfccaa5f495a36/assets/efmaqxcadlmjn3o_2040279.mp4/seg-2-v1-a1.ts?Policy=eyJTdGF0ZW1lbnQiOlt7IlJlc291cmNlIjoiaHR0cHM6Ly92LnZydi5jby9ldnMvZTRkYjM2MWY3NjAzMDY3OWM5ZGZjY2FhNWY0OTVhMzYvYXNzZXRzL2VmbWFxeGNhZGxtam4zb18yMDQwMjc5Lm1wNC8qIiwiQ29uZGl0aW9uIjp7IkRhdGVMZXNzVGhhbiI6eyJBV1M6RXBvY2hUaW1lIjoxNTc2OTY2NjIyfX19XX0_&Signature=ALtVuyAw1r7fUHsMg3tgqZpXisYSSadNEbzuhr9vB2~utLLZeuRpru9O9RrW0dTvySqPq2-fTsHIiPe1BrKrA19yIT-yTj2F9NqnJfh4v7HTE277Us6BNTQFamBzZMiEpVsNWTSy1P20B7-OCV9XPBb6uG4mAwJPGU-bYTtmMX-twa-u76kNwCItSX9tL8GYDu-NXpYF1udyXkSrlxupWGIxP2QQ8~InoV98CvCpueptuE1GkG17Fnxt-Dqz7fgYEiDUBqoUYDBOG-jO9OElbcG21BZVsu7TAQEMwgqFUIn65T5rgWr8flDWGkgrVLCCkt9L-OpuEtxdrKhr-s77eg__&Key-Pair-Id=APKAJMWSQ5S7ZB3MF5VA' for reading

frame=  359 fps=0.0 q=-1.0 size=    4864kB time=00:00:11.94 bitrate=3335.7kbits/s speed=21.9x    

frame=  753 fps=719 q=-1.0 size=   11264kB time=00:00:25.09 bitrate=3677.5kbits/s speed=  24x    

frame= 1079 fps=698 q=-1.0 size=   17920kB time=00:00:35.96 bitrate=4081.3kbits/s speed=23.3x    

frame= 1512 fps=738 q=-1.0 size=   25344kB time=00:00:50.41 bitrate=4118.0kbits/s speed=24.6x    

[hls @ 06d549c0] Opening 'crypto+https://v.vrv.co/evs/e4db361f76030679c9dfccaa5f495a36/assets/efmaqxcadlmjn3o_2040279.mp4/seg-8-v1-a1.ts?Policy=eyJTdGF0ZW1lbnQiOlt7IlJlc291cmNlIjoiaHR0cHM6Ly92LnZydi5jby9ldnMvZTRkYjM2MWY3NjAzMDY3OWM5ZGZjY2FhNWY0OTVhMzYvYXNzZXRzL2VmbWFxeGNhZGxtam4zb18yMDQwMjc5Lm1wNC8qIiwiQ29uZGl0aW9uIjp7IkRhdGVMZXNzVGhhbiI6eyJBV1M6RXBvY2hUaW1lIjoxNTc2OTY2NjIyfX19XX0_&Signature=ALtVuyAw1r7fUHsMg3tgqZpXisYSSadNEbzuhr9vB2~utLLZeuRpru9O9RrW0dTvySqPq2-fTsHIiPe1BrKrA19yIT-yTj2F9NqnJfh4v7HTE277Us6BNTQFamBzZMiEpVsNWTSy1P20B7-OCV9XPBb6uG4mAwJPGU-bYTtmMX-twa-u76kNwCItSX9tL8GYDu-NXpYF1udyXkSrlxupWGIxP2QQ8~InoV98CvCpueptuE1GkG17Fnxt-Dqz7fgYEiDUBqoUYDBOG-jO9OElbcG21BZVsu7TAQEMwgqFUIn65T5rgWr8flDWGkgrVLCCkt9L-OpuEtxdrKhr-s77eg__&Key-Pair-Id=APKAJMWSQ5S7ZB3MF5VA' for reading

[hls @ 06d549c0] Opening 'crypto+https://v.vrv.co/evs/e4db361f76030679c9dfccaa5f495a36/assets/efmaqxcadlmjn3o_2040279.mp4/seg-9-v1-a1.ts?Policy=eyJTdGF0ZW1lbnQiOlt7IlJlc291cmNlIjoiaHR0cHM6Ly92LnZydi5jby9ldnMvZTRkYjM2MWY3NjAzMDY3OWM5ZGZjY2FhNWY0OTVhMzYvYXNzZXRzL2VmbWFxeGNhZGxtam4zb18yMDQwMjc5Lm1wNC8qIiwiQ29uZGl0aW9uIjp7IkRhdGVMZXNzVGhhbiI6eyJBV1M6RXBvY2hUaW1lIjoxNTc2OTY2NjIyfX19XX0_&Signature=ALtVuyAw1r7fUHsMg3tgqZpXisYSSadNEbzuhr9vB2~utLLZeuRpru9O9RrW0dTvySqPq2-fTsHIiPe1BrKrA19yIT-yTj2F9NqnJfh4v7HTE277Us6BNTQFamBzZMiEpVsNWTSy1P20B7-OCV9XPBb6uG4mAwJPGU-bYTtmMX-twa-u76kNwCItSX9tL8GYDu-NXpYF1udyXkSrlxupWGIxP2QQ8~InoV98CvCpueptuE1GkG17Fnxt-Dqz7fgYEiDUBqoUYDBOG-jO9OElbcG21BZVsu7TAQEMwgqFUIn65T5rgWr8flDWGkgrVLCCkt9L-OpuEtxdrKhr-s77eg__&Key-Pair-Id=APKAJMWSQ5S7ZB3MF5VA' for reading

[hls @ 06d549c0] Opening 'crypto+https://v.vrv.co/evs/e4db361f76030679c9dfccaa5f495a36/assets/efmaqxcadlmjn3o_2040279.mp4/seg-10-v1-a1.ts?Policy=eyJTdGF0ZW1lbnQiOlt7IlJlc291cmNlIjoiaHR0cHM6Ly92LnZydi5jby9ldnMvZTRkYjM2MWY3NjAzMDY3OWM5ZGZjY2FhNWY0OTVhMzYvYXNzZXRzL2VmbWFxeGNhZGxtam4zb18yMDQwMjc5Lm1wNC8qIiwiQ29uZGl0aW9uIjp7IkRhdGVMZXNzVGhhbiI6eyJBV1M6RXBvY2hUaW1lIjoxNTc2OTY2NjIyfX19XX0_&Signature=ALtVuyAw1r7fUHsMg3tgqZpXisYSSadNEbzuhr9vB2~utLLZeuRpru9O9RrW0dTvySqPq2-fTsHIiPe1BrKrA19yIT-yTj2F9NqnJfh4v7HTE277Us6BNTQFamBzZMiEpVsNWTSy1P20B7-OCV9XPBb6uG4mAwJPGU-bYTtmMX-twa-u76kNwCItSX9tL8GYDu-NXpYF1udyXkSrlxupWGIxP2QQ8~InoV98CvCpueptuE1GkG17Fnxt-Dqz7fgYEiDUBqoUYDBOG-jO9OElbcG21BZVsu7TAQEMwgqFUIn65T5rgWr8flDWGkgrVLCCkt9L-OpuEtxdrKhr-s77eg__&Key-Pair-Id=APKAJMWSQ5S7ZB3MF5VA' for reading

frame= 2743 fps=701 q=-1.0 size=   45056kB time=00:01:31.49 bitrate=4034.2kbits/s speed=23.4x    

frame= 3196 fps=724 q=-1.0 size=   50176kB time=00:01:46.60 bitrate=3855.7kbits/s speed=24.1x    

frame= 3597 fps=732 q=-1.0 size=   58112kB time=00:01:59.98 bitrate=3967.6kbits/s speed=24.4x    

frame= 3882 fps=716 q=-1.0 size=   65280kB time=00:02:09.49 bitrate=4129.7kbits/s speed=23.9x    

[mp4 @ 07710f00] Starting second pass: moving the moov atom to the beginning of the file

video:65697kB audio:2137kB subtitle:0kB other streams:0kB global headers:0kB muxing overhead: 0.225047%
---------------------------
OK   
---------------------------
